<svg width="82" height="82" viewBox="0 0 82 82" fill="none" xmlns="http://www.w3.org/2000/svg">
<path fill-rule="evenodd" clip-rule="evenodd" d="M41 82C63.6437 82 82 63.6437 82 41C82 18.3563 63.6437 0 41 0C18.3563 0 0 18.3563 0 41C0 63.6437 18.3563 82 41 82ZM47.8714 23.9904C47.7071 25.9389 47.5462 27.8759 47.386 29.804C46.932 35.2674 46.484 40.6593 45.9814 46.0404C45.7214 48.8804 43.7614 50.7403 41.3614 50.7104C38.9714 50.6903 37.1514 48.7803 36.8914 45.9004C36.2414 38.7904 35.6014 31.6704 35.0214 24.5504C34.7114 20.6504 37.8114 17.0404 41.3814 17.0004C44.9114 16.9604 47.9614 20.3404 47.8714 23.9904ZM35.3914 58.7604C35.4214 62.0304 38.2314 64.7504 41.5314 64.7104V64.7004C44.8514 64.6604 47.6014 61.8704 47.5214 58.6104C47.4414 55.3904 44.5214 52.5304 41.3714 52.5904C38.1414 52.6504 35.3614 55.5204 35.3914 58.7604Z" fill="white"/>
</svg>
