<svg width="40" height="39" viewBox="0 0 40 39" fill="none" xmlns="http://www.w3.org/2000/svg">
<path d="M20.0005 7C16.2874 7 12.7263 8.46067 10.1007 11.0607C7.47506 13.6607 6 17.187 6 20.864C6.00023 23.0316 6.515 25.1688 7.50275 27.1032C8.4905 29.0376 9.9236 30.7149 11.6864 32C11.5618 31.5256 11.4978 31.0376 11.4958 30.5475C11.5006 28.9797 12.1316 27.4776 13.2511 26.369C14.3706 25.2604 15.8876 24.6355 17.4707 24.6308H22.5637C24.1469 24.6355 25.6639 25.2604 26.7833 26.369C27.9028 27.4776 28.5339 28.9797 28.5387 30.5475C28.5369 31.0262 28.4758 31.503 28.3567 31.9669C30.1073 30.6807 31.5295 29.0065 32.5094 27.0783C33.4894 25.1501 33.9999 23.0215 34 20.8629C33.9997 17.1864 32.5247 13.6604 29.8993 11.0607C27.274 8.46093 23.7133 7.00028 20.0005 7ZM20.0178 23.2241C18.7045 23.1931 17.4575 22.6468 16.5509 21.7054C15.6443 20.7641 15.1523 19.5047 15.1833 18.2043C15.1523 16.9038 15.6443 15.6444 16.5509 14.7031C17.4575 13.7617 18.7045 13.2155 20.0178 13.1844C21.331 13.2155 22.5781 13.7617 23.4847 14.7031C24.3913 15.6444 24.8832 16.9038 24.8523 18.2043C24.8832 19.5045 24.3914 20.7638 23.485 21.7051C22.5787 22.6464 21.3319 23.1928 20.0189 23.2241H20.0178Z" fill="#7B61FF"/>
</svg>
