<svg width="72" height="72" viewBox="0 0 72 72" fill="none" xmlns="http://www.w3.org/2000/svg">
<g filter="url(#filter0_d_32_90)">
<circle cx="36" cy="29" r="26" fill="#7B61FF"/>
</g>
<path d="M36.0208 16C39.3598 16.0001 42.5698 17.2895 44.9812 19.5992L46.8532 17.7272C47.029 17.5511 47.2531 17.4312 47.4972 17.3826C47.7412 17.334 47.9942 17.3589 48.224 17.4541C48.4539 17.5494 48.6503 17.7107 48.7885 17.9177C48.9266 18.1246 49.0002 18.3679 49 18.6167V25.646C49 25.9795 48.8675 26.2993 48.6318 26.5351C48.396 26.7708 48.0762 26.9033 47.7427 26.9033H40.7099C40.4611 26.9035 40.2178 26.8299 40.0109 26.6918C39.8039 26.5536 39.6426 26.3572 39.5474 26.1273C39.4521 25.8974 39.4272 25.6445 39.4758 25.4004C39.5244 25.1564 39.6443 24.9323 39.8204 24.7564L42.0099 22.5706C40.7649 21.407 39.2089 20.6296 37.5309 20.3327C35.8528 20.0359 34.1246 20.2323 32.556 20.8982C30.9873 21.564 29.6455 22.6707 28.6934 24.0841C27.7412 25.4975 27.2195 27.1567 27.1917 28.8607C27.1638 30.5646 27.6309 32.2401 28.5364 33.6838C29.4418 35.1275 30.7467 36.2775 32.2928 36.9943C33.8388 37.7111 35.5596 37.9639 37.2465 37.7221C38.9334 37.4803 40.5139 36.7542 41.7963 35.6319C41.9164 35.5269 42.0718 35.4716 42.2312 35.4771C42.3905 35.4826 42.5418 35.5486 42.6543 35.6616L44.7324 37.7397C44.7928 37.8003 44.8402 37.8725 44.8718 37.9521C44.9033 38.0316 44.9183 38.1167 44.9159 38.2022C44.9135 38.2877 44.8936 38.3718 44.8576 38.4494C44.8216 38.527 44.7701 38.5964 44.7064 38.6534C43.1393 40.0669 41.2516 41.0777 39.2064 41.5983C37.1613 42.1189 35.0201 42.1337 32.9679 41.6415C30.9157 41.1493 29.0142 40.1649 27.4277 38.7733C25.8411 37.3817 24.6172 35.6247 23.8616 33.6541C23.1061 31.6836 22.8417 29.5587 23.0912 27.4631C23.3407 25.3674 24.0966 23.364 25.2937 21.626C26.4908 19.8879 28.093 18.4674 29.9619 17.4872C31.8309 16.507 33.9104 15.9966 36.0208 16Z" fill="white"/>
<defs>
<filter id="filter0_d_32_90" x="0" y="0" width="72" height="72" filterUnits="userSpaceOnUse" color-interpolation-filters="sRGB">
<feFlood flood-opacity="0" result="BackgroundImageFix"/>
<feColorMatrix in="SourceAlpha" type="matrix" values="0 0 0 0 0 0 0 0 0 0 0 0 0 0 0 0 0 0 127 0" result="hardAlpha"/>
<feOffset dy="7"/>
<feGaussianBlur stdDeviation="5"/>
<feComposite in2="hardAlpha" operator="out"/>
<feColorMatrix type="matrix" values="0 0 0 0 0.482353 0 0 0 0 0.380392 0 0 0 0 1 0 0 0 0.35 0"/>
<feBlend mode="normal" in2="BackgroundImageFix" result="effect1_dropShadow_32_90"/>
<feBlend mode="normal" in="SourceGraphic" in2="effect1_dropShadow_32_90" result="shape"/>
</filter>
</defs>
</svg>
