<svg width="275" height="293" viewBox="0 0 275 293" fill="none" xmlns="http://www.w3.org/2000/svg">
<path d="M226.796 252.557L169.854 247.909L168.766 255.944L225.708 260.591L226.796 252.557Z" fill="#E8F0FE"/>
<path d="M141.997 23.9044L133.183 26.0203L130.147 13.3745C128.942 8.35488 124.28 5.47052 119.303 6.66549C118.646 6.82325 117.99 7.05132 117.354 7.34355L14.4463 54.5735C13.7341 54.8143 13.0606 55.1241 12.4352 55.4962L12.4203 55.5029L12.4208 55.5051C8.58693 57.7961 6.49806 62.374 7.58837 66.9155L49.855 242.969C51.1994 248.569 56.8776 252.024 62.5129 250.671L189.141 220.271C194.775 218.918 198.266 213.261 196.921 207.661L154.655 31.608C153.31 26.0071 147.632 22.5515 141.997 23.9044ZM119.589 12.1825C119.908 12.0363 120.23 11.9236 120.548 11.8473C122.651 11.3425 124.413 12.4593 124.933 14.6262L127.969 27.272L41.4581 48.0415L119.589 12.1825ZM191.707 208.913C192.365 211.656 190.656 214.426 187.896 215.089L61.2681 245.49C58.5082 246.152 55.7273 244.46 55.0688 241.717L12.8022 65.6637C12.1437 62.9208 13.8531 60.1503 16.613 59.4877L143.241 29.0871C146.001 28.4245 148.781 30.1169 149.44 32.8599L191.707 208.913Z" fill="#E8F0FE"/>
<path d="M135.304 123.93L135.261 123.795C132.356 114.737 127.098 106.693 120.055 100.531C111.922 93.4158 102.113 89.6151 92.8496 89.9256L92.8345 89.8622L90.9044 90.0505C90.9037 90.0506 90.903 90.0508 90.9023 90.0509C90.6389 90.0769 90.3763 90.1128 90.1134 90.1455L90.0933 90.0797L88.2082 90.4339L88.2069 90.4341L86.3198 90.7887L86.34 90.8544C86.0862 90.9189 85.8314 90.9802 85.5818 91.0514L83.7516 91.5704L83.7733 91.6292C75.6427 94.5172 69.4098 100.824 66.1096 109.572C63.0353 117.721 62.8679 127.418 65.6375 136.875L65.677 137.011C65.7251 137.177 65.7734 137.342 65.8244 137.508C68.6841 146.83 74.2632 155.41 81.5345 161.667C89.833 168.808 99.7909 172.501 109.149 171.974L109.165 172.036L111.086 171.804C111.115 171.8 111.143 171.796 111.171 171.792L111.19 171.854L113.075 171.5L113.076 171.5L114.961 171.145L114.942 171.084C114.969 171.077 114.996 171.071 115.023 171.064L116.869 170.588L116.848 170.529C125.909 167.546 132.788 160.276 135.876 150.318C138.352 142.335 138.208 133.382 135.46 124.425C135.41 124.26 135.357 124.094 135.304 123.93ZM117.811 147.023C117.803 147.544 117.788 148.063 117.765 148.577C117.761 148.672 117.753 148.764 117.749 148.858C117.727 149.278 117.703 149.696 117.672 150.112C117.659 150.288 117.642 150.462 117.627 150.637C117.598 150.97 117.567 151.302 117.532 151.632C117.512 151.823 117.489 152.013 117.467 152.202C117.429 152.518 117.389 152.832 117.346 153.146C117.319 153.332 117.293 153.518 117.265 153.704C117.215 154.03 117.162 154.354 117.106 154.676C117.078 154.839 117.052 155.003 117.022 155.165C116.942 155.593 116.857 156.017 116.767 156.437C116.756 156.489 116.747 156.541 116.735 156.592C116.632 157.061 116.521 157.523 116.405 157.983C116.368 158.128 116.327 158.271 116.288 158.415C116.205 158.729 116.119 159.041 116.028 159.351C115.979 159.52 115.926 159.688 115.875 159.856C115.788 160.138 115.699 160.418 115.606 160.696C115.55 160.866 115.493 161.034 115.434 161.203C115.337 161.481 115.236 161.756 115.133 162.03C115.074 162.184 115.017 162.341 114.957 162.494C114.834 162.806 114.706 163.113 114.576 163.418C114.53 163.525 114.488 163.634 114.441 163.74C114.262 164.147 114.076 164.548 113.884 164.941C113.839 165.033 113.791 165.121 113.746 165.211C113.622 165.458 113.495 165.702 113.366 165.944L107.185 145.795C107.313 145.775 107.44 145.751 107.568 145.732C107.74 145.708 107.912 145.684 108.085 145.661C108.452 145.613 108.82 145.572 109.189 145.535C109.337 145.52 109.485 145.503 109.633 145.49C110.144 145.446 110.656 145.41 111.17 145.388C111.234 145.386 111.298 145.386 111.362 145.383C111.814 145.366 112.266 145.358 112.719 145.357C112.884 145.357 113.05 145.36 113.214 145.362C113.579 145.367 113.945 145.377 114.311 145.392C114.482 145.4 114.653 145.407 114.824 145.416C115.24 145.44 115.656 145.471 116.072 145.509C116.179 145.519 116.285 145.525 116.391 145.536C116.864 145.583 117.337 145.641 117.811 145.706C117.814 146.001 117.815 146.295 117.813 146.588C117.812 146.731 117.814 146.879 117.811 147.023ZM107.145 164.915C106.848 164.689 106.552 164.46 106.257 164.224C106.12 164.115 105.985 164.002 105.848 163.891C105.602 163.689 105.357 163.486 105.113 163.279C104.967 163.154 104.822 163.029 104.677 162.903C104.44 162.697 104.205 162.488 103.971 162.276C103.831 162.148 103.689 162.021 103.55 161.892C103.302 161.663 103.056 161.429 102.81 161.192C102.69 161.077 102.569 160.964 102.45 160.846C102.093 160.497 101.739 160.141 101.389 159.778C101.374 159.762 101.359 159.747 101.344 159.73C101.001 159.375 100.661 159.011 100.325 158.643C100.209 158.516 100.096 158.386 99.9803 158.257C99.7482 157.998 99.5169 157.738 99.2879 157.472C99.1577 157.322 99.0286 157.169 98.8997 157.016C98.6864 156.765 98.4742 156.509 98.2642 156.252C98.1352 156.094 98.006 155.936 97.8785 155.776C97.664 155.509 97.4517 155.237 97.2406 154.964C97.1247 154.814 97.0079 154.666 96.8932 154.515C96.6417 154.183 96.3937 153.847 96.1467 153.508C96.077 153.413 96.0048 153.318 95.9355 153.221C95.6213 152.784 95.3112 152.341 95.0048 151.891C94.9254 151.776 94.8488 151.658 94.7705 151.541C94.5904 151.273 94.4123 151.002 94.235 150.729C94.6481 150.456 95.0682 150.195 95.494 149.942C95.6158 149.87 95.7393 149.8 95.8616 149.73C96.2008 149.535 96.5431 149.346 96.8896 149.164C97.0167 149.097 97.1441 149.029 97.2715 148.963C97.7286 148.73 98.1902 148.505 98.6598 148.295C98.6953 148.279 98.7319 148.264 98.768 148.248C99.2052 148.054 99.6489 147.872 100.096 147.696C100.236 147.641 100.378 147.588 100.519 147.535C100.897 147.393 101.279 147.258 101.664 147.129C101.786 147.089 101.908 147.046 102.031 147.007C102.495 146.857 102.965 146.72 103.44 146.59L109.595 166.653C109.36 166.498 109.126 166.342 108.894 166.181C108.791 166.11 108.686 166.04 108.582 165.969C108.191 165.693 107.801 165.411 107.414 165.121C107.323 165.055 107.234 164.984 107.145 164.915ZM83.3075 113.318C83.3187 112.979 83.3345 112.643 83.3519 112.308C83.3589 112.164 83.3643 112.02 83.3731 111.877C83.4019 111.401 83.436 110.927 83.4779 110.459C83.4832 110.401 83.49 110.343 83.4953 110.285C83.5336 109.875 83.5758 109.468 83.623 109.063C83.6414 108.907 83.663 108.755 83.6833 108.6C83.7222 108.295 83.7625 107.99 83.8075 107.688C83.8337 107.513 83.8617 107.34 83.8898 107.166C83.9349 106.886 83.9815 106.608 84.0312 106.331C84.0633 106.154 84.0965 105.976 84.1309 105.8C84.1837 105.528 84.2384 105.258 84.2958 104.99C84.3327 104.817 84.369 104.644 84.4081 104.473C84.4706 104.198 84.5366 103.925 84.6037 103.654C84.643 103.496 84.6807 103.337 84.7219 103.18C84.8018 102.875 84.8857 102.573 84.9721 102.273C85.0058 102.155 85.0374 102.035 85.0718 101.917C85.1951 101.5 85.3244 101.088 85.4607 100.681C85.4807 100.619 85.5034 100.559 85.5241 100.498C85.6406 100.155 85.7607 99.8138 85.886 99.4784C85.9362 99.3416 85.991 99.2081 86.0433 99.0733C86.1435 98.8156 86.2446 98.5586 86.3495 98.3042C86.4119 98.1533 86.4771 98.0044 86.5421 97.8548C86.643 97.6204 86.7457 97.3874 86.8515 97.1571C86.9212 97.004 86.9929 96.8531 87.0647 96.7021C87.1722 96.4774 87.2817 96.2548 87.3941 96.0342C87.4687 95.8878 87.543 95.7406 87.619 95.5964C87.6559 95.5266 87.6942 95.459 87.7314 95.39L93.703 114.856C93.2173 114.908 92.7301 114.951 92.2417 114.984C92.1112 114.992 91.9808 114.997 91.8504 115.003C91.4375 115.026 91.0242 115.042 90.6099 115.05C90.4546 115.054 90.2993 115.057 90.1433 115.058C89.6419 115.061 89.1397 115.058 88.6369 115.041C88.6041 115.039 88.5718 115.039 88.5389 115.038C88.0052 115.019 87.4704 114.984 86.9353 114.941C86.7839 114.929 86.6326 114.914 86.4813 114.9C86.0679 114.862 85.6536 114.817 85.2395 114.764C85.098 114.747 84.9562 114.731 84.8142 114.711C84.3054 114.642 83.7962 114.561 83.2868 114.471C83.2886 114.268 83.291 114.064 83.2959 113.862C83.2995 113.681 83.3026 113.499 83.3075 113.318ZM95.2614 97.4563C95.3884 97.5606 95.5159 97.6616 95.6411 97.7671C95.9673 98.0394 96.2904 98.3182 96.6118 98.6006C96.6561 98.6393 96.7014 98.6768 96.7459 98.7163C97.1109 99.04 97.4724 99.371 97.8312 99.7076C97.9412 99.8102 98.0489 99.9173 98.158 100.022C98.4063 100.258 98.6544 100.497 98.8989 100.74C99.0333 100.873 99.1658 101.009 99.2987 101.144C99.5171 101.366 99.7352 101.589 99.951 101.816C100.09 101.961 100.228 102.11 100.367 102.258C100.576 102.481 100.783 102.707 100.989 102.936C101.126 103.088 101.263 103.24 101.399 103.394C101.607 103.628 101.811 103.867 102.016 104.105C102.146 104.257 102.277 104.409 102.405 104.561C102.623 104.821 102.838 105.085 103.052 105.351C103.163 105.488 103.275 105.623 103.385 105.761C103.668 106.118 103.948 106.479 104.225 106.845C104.263 106.895 104.302 106.943 104.339 106.993C104.654 107.411 104.964 107.834 105.271 108.263C105.364 108.393 105.455 108.526 105.547 108.657C105.759 108.958 105.97 109.26 106.179 109.567C106.292 109.734 106.402 109.902 106.514 110.069C106.635 110.253 106.756 110.438 106.876 110.623C106.504 110.84 106.129 111.053 105.746 111.254C105.675 111.291 105.601 111.326 105.528 111.363C105.168 111.55 104.803 111.729 104.435 111.902C104.291 111.969 104.146 112.034 104.002 112.099C103.688 112.24 103.372 112.377 103.054 112.508C102.907 112.568 102.761 112.629 102.613 112.688C102.225 112.841 101.833 112.987 101.438 113.126C101.368 113.151 101.3 113.178 101.23 113.202C100.767 113.36 100.298 113.508 99.825 113.647C99.6862 113.687 99.5457 113.724 99.4064 113.763C99.0603 113.86 98.7127 113.952 98.3619 114.038C98.1987 114.079 98.0347 114.117 97.8701 114.156C97.7484 114.184 97.6252 114.207 97.5032 114.234L91.5043 94.6794C91.5849 94.733 91.6651 94.7833 91.7456 94.837C91.9007 94.9411 92.0551 95.0479 92.2096 95.1546C92.445 95.3166 92.6791 95.4813 92.9122 95.6496C93.0665 95.7606 93.221 95.8724 93.3744 95.9852C93.6099 96.1589 93.8436 96.3363 94.0761 96.5147C94.2232 96.6279 94.3711 96.7392 94.5175 96.8551C94.7678 97.0536 95.0145 97.2545 95.2614 97.4563ZM115.653 141.072C115.201 141.031 114.749 140.997 114.298 140.972C114.108 140.961 113.919 140.953 113.729 140.945C113.332 140.929 112.934 140.917 112.538 140.912C112.351 140.909 112.165 140.906 111.978 140.906C111.514 140.907 111.052 140.916 110.59 140.933C110.484 140.936 110.379 140.937 110.273 140.942C109.709 140.966 109.147 141.005 108.586 141.053C108.435 141.067 108.286 141.085 108.135 141.1C107.719 141.141 107.305 141.188 106.893 141.242C106.704 141.266 106.516 141.293 106.327 141.321C106.163 141.345 105.998 141.364 105.835 141.39L103.019 132.211L115.511 129.864C115.514 129.876 115.518 129.888 115.521 129.9C115.534 129.945 115.544 129.99 115.557 130.035C115.705 130.577 115.844 131.119 115.978 131.662C116.02 131.833 116.061 132.004 116.102 132.176C116.21 132.63 116.313 133.084 116.411 133.536C116.442 133.682 116.476 133.827 116.506 133.973C116.628 134.554 116.742 135.135 116.846 135.715C116.867 135.83 116.885 135.944 116.905 136.059C116.988 136.534 117.066 137.009 117.137 137.483C117.164 137.656 117.19 137.83 117.214 138.004C117.282 138.48 117.345 138.955 117.402 139.43C117.415 139.541 117.431 139.652 117.443 139.763C117.501 140.272 117.549 140.78 117.594 141.286C117.069 141.215 116.544 141.154 116.021 141.102C115.898 141.09 115.775 141.083 115.653 141.072ZM100.84 142.542C100.741 142.573 100.644 142.604 100.546 142.634C100.185 142.746 99.8276 142.863 99.4728 142.986C99.4228 143.004 99.3724 143.02 99.3228 143.037C98.9286 143.176 98.5385 143.323 98.1516 143.474C98.0571 143.511 97.9638 143.55 97.8695 143.587C97.5319 143.724 97.1969 143.864 96.8645 144.01C96.8067 144.035 96.7479 144.06 96.6904 144.086C96.3135 144.254 95.9411 144.429 95.5716 144.609C95.4823 144.654 95.3936 144.698 95.3043 144.742C94.9874 144.902 94.6717 145.065 94.3595 145.233C94.2967 145.267 94.2331 145.299 94.1702 145.334C93.8108 145.53 93.4558 145.734 93.1046 145.944C93.021 145.993 92.9382 146.044 92.8549 146.094C92.5562 146.275 92.2603 146.461 91.9668 146.652C91.9212 146.681 91.8741 146.709 91.8287 146.739C91.5542 146.246 91.2827 145.75 91.0207 145.251C90.9613 145.137 90.9047 145.023 90.846 144.909C90.6108 144.454 90.3803 143.996 90.1545 143.535C90.0699 143.362 89.9866 143.189 89.903 143.015C89.6839 142.557 89.47 142.097 89.2608 141.633C89.2052 141.51 89.1477 141.389 89.0931 141.265C88.8357 140.686 88.5866 140.104 88.3457 139.519C88.2872 139.377 88.2311 139.234 88.1742 139.093C87.9883 138.633 87.8065 138.172 87.6301 137.707C87.5621 137.528 87.4944 137.349 87.4276 137.169C87.2397 136.662 87.0574 136.152 86.8807 135.64C86.8474 135.543 86.8123 135.447 86.779 135.35C86.7698 135.323 86.7611 135.294 86.7519 135.267L99.2425 132.92L102.085 142.184C102.076 142.187 102.068 142.19 102.06 142.192C101.652 142.302 101.245 142.42 100.84 142.542ZM84.6891 119.077C84.791 119.093 84.8929 119.108 84.9945 119.122C85.4254 119.182 85.8551 119.235 86.2855 119.282C86.3569 119.289 86.4288 119.296 86.5007 119.303C86.8738 119.341 87.2459 119.373 87.6179 119.4C87.7232 119.408 87.8295 119.417 87.9346 119.424C88.3631 119.452 88.7922 119.476 89.2193 119.49C89.282 119.493 89.3432 119.493 89.4057 119.495C89.7837 119.506 90.1612 119.512 90.5384 119.511C90.6452 119.512 90.7518 119.512 90.8581 119.512C91.2855 119.508 91.7124 119.501 92.1387 119.485C92.1885 119.483 92.2379 119.48 92.287 119.478C92.6723 119.462 93.0563 119.439 93.4409 119.411C93.548 119.404 93.6551 119.396 93.7627 119.388C94.1872 119.354 94.6114 119.314 95.0346 119.267C95.0416 119.266 95.0493 119.266 95.0562 119.264L97.8983 128.529L85.4295 130.872C85.2711 130.278 85.1222 129.685 84.9816 129.092C84.9427 128.928 84.9062 128.765 84.8689 128.601C84.7585 128.121 84.6544 127.641 84.5556 127.162C84.5204 126.991 84.4841 126.82 84.4505 126.65C84.328 126.033 84.2127 125.415 84.1096 124.8C84.1011 124.748 84.094 124.697 84.0855 124.646C83.9923 124.079 83.9079 123.513 83.8305 122.948C83.8058 122.77 83.7832 122.59 83.7602 122.412C83.6985 121.931 83.6434 121.451 83.5931 120.973C83.5777 120.827 83.5613 120.681 83.5468 120.536C83.4937 119.98 83.4499 119.427 83.4123 118.875C83.4672 118.884 83.5211 118.891 83.5759 118.901C83.9474 118.964 84.3182 119.023 84.6891 119.077ZM99.8661 118.402C100.258 118.306 100.646 118.202 101.032 118.094C101.177 118.053 101.323 118.016 101.468 117.973C101.989 117.82 102.506 117.658 103.016 117.482C103.111 117.449 103.204 117.413 103.297 117.38C103.714 117.233 104.128 117.08 104.539 116.918C104.705 116.851 104.869 116.783 105.034 116.715C105.379 116.572 105.721 116.425 106.06 116.272C106.224 116.198 106.388 116.124 106.551 116.048C106.933 115.87 107.31 115.682 107.684 115.49C107.787 115.437 107.893 115.387 107.996 115.333C108.43 115.104 108.86 114.867 109.283 114.619C109.551 115.102 109.815 115.586 110.072 116.076C110.137 116.2 110.199 116.324 110.263 116.448C110.487 116.882 110.707 117.319 110.922 117.758C110.999 117.916 111.077 118.074 111.153 118.233C111.408 118.764 111.657 119.296 111.899 119.834C111.91 119.86 111.922 119.885 111.934 119.911C112.185 120.473 112.427 121.039 112.663 121.608C112.731 121.768 112.795 121.93 112.861 122.092C113.044 122.54 113.222 122.99 113.395 123.443C113.45 123.585 113.506 123.727 113.559 123.87C113.759 124.403 113.952 124.939 114.139 125.478L101.672 127.821L98.8561 118.642C99.0119 118.607 99.1653 118.568 99.3206 118.532C99.5024 118.489 99.6845 118.446 99.8661 118.402ZM117.918 124.767C117.701 124.135 117.473 123.508 117.238 122.884C117.169 122.698 117.096 122.514 117.025 122.328C116.846 121.862 116.663 121.397 116.474 120.935C116.399 120.749 116.323 120.562 116.247 120.377C115.996 119.774 115.74 119.174 115.475 118.58C115.466 118.56 115.458 118.541 115.449 118.522C115.174 117.908 114.889 117.3 114.598 116.695C114.514 116.519 114.427 116.344 114.341 116.169C114.121 115.72 113.897 115.274 113.668 114.83C113.577 114.655 113.488 114.48 113.396 114.306C113.083 113.711 112.765 113.119 112.436 112.534C112.847 112.229 113.248 111.912 113.643 111.59C113.756 111.497 113.868 111.402 113.98 111.308C114.284 111.053 114.585 110.792 114.881 110.526C114.986 110.432 115.093 110.338 115.196 110.242C115.576 109.891 115.95 109.534 116.313 109.165C116.36 109.117 116.405 109.067 116.453 109.018C116.77 108.693 117.08 108.361 117.384 108.022C117.487 107.907 117.589 107.791 117.691 107.675C117.96 107.367 118.224 107.054 118.483 106.736C118.559 106.641 118.638 106.549 118.713 106.454C119.007 106.083 119.296 105.707 119.576 105.323C124.487 110.062 128.3 115.882 130.736 122.357L117.918 124.765L117.918 124.767ZM116.148 102.338C115.923 102.643 115.698 102.948 115.462 103.243C115.434 103.279 115.404 103.313 115.376 103.348C115.107 103.681 114.832 104.007 114.55 104.327C114.467 104.422 114.384 104.515 114.3 104.609C114.011 104.93 113.717 105.246 113.415 105.555C113.388 105.582 113.362 105.612 113.335 105.639C113.008 105.972 112.671 106.293 112.328 106.61C112.239 106.693 112.147 106.774 112.057 106.856C111.766 107.118 111.47 107.375 111.169 107.627C111.103 107.682 111.037 107.74 110.969 107.795C110.659 108.049 110.341 108.294 110.02 108.537C109.942 108.417 109.859 108.302 109.781 108.184C109.49 107.741 109.195 107.303 108.897 106.87C108.765 106.68 108.634 106.489 108.501 106.3C108.148 105.801 107.791 105.308 107.428 104.821C107.358 104.728 107.292 104.632 107.221 104.539C106.79 103.968 106.352 103.408 105.909 102.857C105.783 102.701 105.655 102.549 105.53 102.395C105.199 101.992 104.866 101.595 104.529 101.203C104.379 101.028 104.228 100.854 104.077 100.682C103.72 100.278 103.36 99.88 102.997 99.4873C102.884 99.3652 102.772 99.2404 102.658 99.1192C102.186 98.6178 101.708 98.1268 101.224 97.6477C101.107 97.5322 100.988 97.4205 100.871 97.3059C100.494 96.9384 100.114 96.5763 99.7304 96.2218C99.5688 96.0728 99.407 95.9255 99.2447 95.7791C98.8724 95.4434 98.498 95.1148 98.1203 94.7918C98.0216 94.7072 97.9249 94.6173 97.8256 94.5328C104.124 95.2228 110.513 97.9259 116.148 102.338ZM81.9131 97.8075C81.7743 98.1999 81.6408 98.5954 81.513 98.9958C81.4553 99.176 81.3975 99.3561 81.3422 99.5375C81.2031 99.9945 81.0713 100.457 80.9451 100.923C80.9149 101.036 80.8818 101.146 80.8518 101.26C80.7016 101.838 80.5624 102.424 80.4332 103.017C80.3995 103.172 80.3696 103.33 80.3371 103.487C80.2444 103.934 80.1568 104.383 80.0765 104.837C80.0402 105.04 80.0058 105.243 79.9729 105.448C79.9004 105.889 79.8339 106.334 79.772 106.783C79.7473 106.965 79.7196 107.147 79.6968 107.331C79.6187 107.954 79.5486 108.582 79.4913 109.217C79.4851 109.288 79.4811 109.362 79.475 109.434C79.4265 110.001 79.3878 110.574 79.3566 111.151C79.3456 111.356 79.3377 111.563 79.329 111.769C79.3097 112.232 79.2948 112.698 79.2866 113.166C79.2845 113.291 79.2773 113.413 79.2751 113.537C78.8844 113.425 78.4937 113.314 78.1064 113.189C78.0498 113.172 77.9932 113.151 77.9363 113.133C77.5064 112.994 77.0785 112.845 76.6526 112.691C76.5301 112.647 76.4081 112.603 76.2861 112.557C75.8115 112.381 75.3388 112.199 74.8692 112.004C74.8502 111.996 74.8311 111.988 74.8121 111.979C74.3604 111.791 73.9122 111.593 73.4658 111.388C73.3444 111.333 73.2226 111.276 73.1022 111.219C72.6683 111.016 72.236 110.806 71.8072 110.587C71.7767 110.572 71.7454 110.557 71.7148 110.541C71.3573 110.357 71.0053 110.162 70.6517 109.967C73.1653 104.438 77.0824 100.156 82.0245 97.4806C81.9847 97.5878 81.9513 97.6997 81.9131 97.8075ZM69.2095 113.774C69.654 114.021 70.1016 114.26 70.5516 114.492C70.6517 114.544 70.7531 114.593 70.8527 114.643C71.2697 114.854 71.6888 115.059 72.1103 115.257C72.2593 115.327 72.4089 115.397 72.5587 115.466C73.0018 115.668 73.4472 115.864 73.8949 116.052C73.9741 116.085 74.0523 116.121 74.1319 116.153C74.6531 116.369 75.177 116.572 75.7034 116.767C75.8424 116.819 75.9819 116.868 76.1218 116.918C76.5307 117.065 76.9411 117.206 77.3532 117.341C77.5022 117.39 77.6514 117.44 77.8004 117.486C78.3267 117.653 78.8539 117.813 79.3849 117.96C79.3863 117.988 79.3896 118.018 79.3911 118.046C79.3981 118.163 79.4088 118.28 79.4172 118.396C79.4546 118.948 79.4992 119.499 79.551 120.053C79.571 120.264 79.5926 120.475 79.6152 120.687C79.6663 121.175 79.723 121.665 79.7846 122.155C79.8094 122.35 79.8328 122.546 79.8591 122.742C79.9505 123.413 80.0494 124.085 80.1615 124.758C80.169 124.804 80.1785 124.849 80.186 124.895C80.2921 125.524 80.4091 126.154 80.5343 126.786C80.5745 126.992 80.6184 127.198 80.6613 127.404C80.7626 127.896 80.8706 128.389 80.9831 128.882C81.0311 129.09 81.0775 129.298 81.1271 129.506C81.2743 130.125 81.4298 130.745 81.594 131.364C81.6104 131.425 81.6246 131.485 81.6401 131.545C81.6431 131.557 81.6458 131.568 81.6494 131.58L68.8369 133.987C67.1797 126.999 67.3089 119.961 69.2095 113.774ZM70.1201 138.393L82.9769 135.978C82.9965 136.037 83.0186 136.095 83.0382 136.154C83.0962 136.327 83.1587 136.497 83.2181 136.67C83.3894 137.165 83.565 137.658 83.7464 138.148C83.8267 138.365 83.9081 138.581 83.9902 138.797C84.1699 139.271 84.3551 139.74 84.5441 140.209C84.6197 140.396 84.694 140.584 84.7707 140.771C85.0364 141.414 85.3089 142.054 85.5913 142.688C85.6221 142.758 85.6553 142.826 85.6867 142.896C85.9412 143.462 86.2035 144.024 86.4715 144.583C86.5652 144.778 86.6614 144.972 86.757 145.166C86.9761 145.613 87.1995 146.057 87.4278 146.499C87.5289 146.694 87.6292 146.89 87.7323 147.085C88.0014 147.596 88.2775 148.104 88.5587 148.608C88.6163 148.711 88.6712 148.815 88.7297 148.919C88.7452 148.946 88.7597 148.974 88.7752 149.002C88.7667 149.009 88.7589 149.017 88.7494 149.023C88.7156 149.051 88.6832 149.082 88.6493 149.11C88.2735 149.425 87.9065 149.749 87.5449 150.079C87.4308 150.184 87.3185 150.29 87.2062 150.395C86.9052 150.679 86.6092 150.968 86.3191 151.261C86.228 151.354 86.1347 151.444 86.0445 151.537C85.6775 151.918 85.319 152.306 84.9701 152.703C84.9024 152.78 84.8376 152.86 84.7706 152.938C84.4877 153.266 84.2102 153.601 83.9392 153.94C83.8405 154.065 83.7427 154.189 83.6458 154.315C83.3796 154.658 83.1202 155.007 82.867 155.362C82.8067 155.447 82.7434 155.53 82.684 155.615C82.4141 156.001 82.1502 156.391 81.8949 156.789C76.6473 151.763 72.5373 145.348 70.1201 138.393ZM85.3304 159.747C85.5544 159.4 85.7802 159.054 86.0164 158.717C86.0661 158.646 86.1183 158.577 86.1686 158.506C86.4027 158.178 86.6422 157.856 86.8891 157.539C86.9657 157.439 87.0433 157.339 87.1215 157.24C87.4188 156.867 87.7211 156.498 88.035 156.139C88.0495 156.123 88.0647 156.106 88.079 156.09C88.38 155.747 88.6903 155.414 89.0055 155.085C89.0955 154.991 89.187 154.897 89.2782 154.805C89.5661 154.513 89.8595 154.226 90.1595 153.946C90.2132 153.896 90.265 153.844 90.3187 153.794C90.6105 153.524 90.9131 153.265 91.2163 153.006C91.2946 153.126 91.377 153.239 91.4551 153.358C91.7665 153.828 92.0818 154.293 92.4018 154.752C92.5344 154.942 92.6663 155.133 92.8003 155.321C93.1971 155.877 93.5988 156.426 94.0067 156.965C94.0525 157.025 94.096 157.087 94.1416 157.147C94.5957 157.742 95.059 158.323 95.5279 158.896C95.6606 159.059 95.7965 159.218 95.9301 159.379C96.2799 159.798 96.6334 160.211 96.9909 160.619C97.1413 160.79 97.2909 160.96 97.4426 161.129C97.8528 161.586 98.2678 162.035 98.6881 162.476C98.7688 162.56 98.8477 162.649 98.929 162.733C99.4276 163.25 99.9334 163.754 100.445 164.248C100.583 164.38 100.723 164.51 100.861 164.641C101.248 165.006 101.637 165.365 102.029 165.716C102.195 165.864 102.36 166.011 102.526 166.157C102.948 166.526 103.375 166.886 103.804 167.238C103.891 167.31 103.977 167.387 104.064 167.459C97.6443 166.889 91.1065 164.217 85.3304 159.747ZM118.738 164.719C118.906 164.284 119.066 163.842 119.221 163.396C119.262 163.28 119.301 163.163 119.341 163.046C119.484 162.621 119.624 162.193 119.755 161.758C119.766 161.72 119.779 161.681 119.79 161.643C119.931 161.176 120.062 160.7 120.188 160.222C120.22 160.102 120.251 159.981 120.281 159.86C120.393 159.416 120.502 158.969 120.603 158.517C120.613 158.471 120.625 158.426 120.635 158.38C120.743 157.889 120.842 157.392 120.934 156.892C120.958 156.767 120.981 156.641 121.003 156.515C121.085 156.058 121.162 155.598 121.231 155.133C121.24 155.078 121.25 155.023 121.257 154.968C121.332 154.457 121.398 153.942 121.458 153.423C121.473 153.295 121.487 153.165 121.501 153.035C121.552 152.567 121.598 152.097 121.637 151.624C121.642 151.558 121.649 151.493 121.654 151.428C121.695 150.902 121.727 150.372 121.753 149.839C121.76 149.705 121.765 149.571 121.771 149.437C121.791 148.963 121.806 148.487 121.814 148.009C121.815 147.932 121.818 147.857 121.819 147.781C121.825 147.345 121.826 146.907 121.823 146.468C122.278 146.58 122.732 146.695 123.184 146.823C123.289 146.852 123.393 146.885 123.498 146.915C123.918 147.037 124.337 147.167 124.754 147.303C124.894 147.348 125.034 147.394 125.173 147.441C126.191 147.786 127.2 148.171 128.197 148.598C128.332 148.656 128.469 148.716 128.604 148.776C129.01 148.956 129.416 149.142 129.818 149.335C129.918 149.382 130.018 149.428 130.117 149.476C130.547 149.686 130.974 149.908 131.399 150.133C128.902 156.696 124.463 161.775 118.738 164.719ZM132.616 146.204C132.129 145.944 131.64 145.697 131.147 145.456C131.025 145.396 130.9 145.34 130.777 145.281C130.346 145.075 129.914 144.876 129.479 144.684C129.312 144.611 129.145 144.538 128.976 144.466C128.518 144.27 128.058 144.083 127.595 143.902C127.495 143.863 127.396 143.821 127.295 143.783C126.74 143.571 126.182 143.373 125.621 143.184C125.472 143.133 125.321 143.087 125.172 143.038C124.741 142.898 124.308 142.764 123.874 142.638C123.706 142.589 123.536 142.539 123.367 142.492C122.836 142.344 122.304 142.204 121.769 142.076C121.727 142.065 121.686 142.054 121.644 142.044C121.635 142.043 121.626 142.039 121.618 142.037C121.617 142.037 121.617 142.036 121.617 142.036C121.617 142.029 121.616 142.023 121.615 142.016C121.564 141.394 121.501 140.769 121.431 140.145C121.41 139.953 121.386 139.763 121.362 139.571C121.307 139.112 121.247 138.653 121.181 138.193C121.153 137.994 121.125 137.795 121.095 137.595C121.013 137.048 120.923 136.5 120.827 135.951C120.811 135.862 120.798 135.773 120.782 135.683C120.668 135.048 120.543 134.412 120.41 133.777C120.372 133.599 120.332 133.42 120.294 133.241C120.192 132.77 120.085 132.299 119.972 131.827C119.923 131.623 119.874 131.418 119.824 131.214C119.699 130.708 119.568 130.203 119.431 129.698C119.394 129.56 119.359 129.42 119.321 129.282C119.309 129.239 119.299 129.198 119.287 129.156L132.149 126.739C133.945 133.44 134.103 140.1 132.616 146.204Z" fill="#E8F0FE"/>
<path d="M154.363 189.797L78.8167 206.004L81.1322 214.623L156.678 198.416L154.363 189.797Z" fill="#E8F0FE"/>
<path d="M141.065 178.974L85.7576 190.556L88.0651 198.939L143.373 187.357L141.065 178.974Z" fill="#E8F0FE"/>
<path d="M123.017 59.2317L47.4711 75.439L49.7866 84.0577L125.332 67.8504L123.017 59.2317Z" fill="#E8F0FE"/>
<rect x="127.313" y="59.1343" width="144.584" height="196.326" rx="7" transform="rotate(5 127.313 59.1343)" fill="white"/>
<path opacity="0.5" d="M226.568 162.853L226.586 162.719C227.816 153.711 226.285 145.043 222.159 137.65C217.396 129.113 209.5 123.189 200.288 121.159L200.302 121.097L198.327 120.787L198.325 120.787C198.055 120.745 197.782 120.713 197.51 120.677L197.52 120.612L195.515 120.465L195.513 120.464L193.506 120.317L193.496 120.383C193.218 120.378 192.941 120.371 192.665 120.373L190.639 120.391L190.634 120.45C181.373 121.06 172.432 125.27 165.265 132.444C158.589 139.128 154.063 147.952 152.521 157.291L152.499 157.425C152.471 157.589 152.445 157.751 152.42 157.916C151.027 167.154 152.631 176.392 156.937 183.929C161.852 192.531 169.942 198.395 179.344 200.25L179.332 200.311L181.317 200.578C181.347 200.582 181.376 200.585 181.406 200.589L181.396 200.65L183.402 200.797L183.403 200.797L185.408 200.944L185.418 200.883C185.447 200.883 185.476 200.885 185.505 200.885L187.527 200.911L187.533 200.852C197.748 200.387 207.755 195.457 215.258 187.124C221.273 180.443 225.16 172.221 226.498 163.345C226.523 163.181 226.546 163.017 226.568 162.853ZM199.05 179.6C198.808 180.074 198.56 180.544 198.306 181.009C198.259 181.095 198.21 181.177 198.164 181.262C197.954 181.64 197.741 182.017 197.524 182.389C197.432 182.547 197.337 182.702 197.244 182.858C197.065 183.155 196.886 183.451 196.703 183.744C196.597 183.913 196.49 184.082 196.383 184.249C196.204 184.529 196.023 184.806 195.84 185.082C195.73 185.245 195.621 185.409 195.51 185.572C195.314 185.858 195.117 186.14 194.917 186.421C194.816 186.563 194.716 186.706 194.614 186.847C194.344 187.218 194.07 187.585 193.793 187.946C193.758 187.991 193.726 188.037 193.691 188.08C193.38 188.483 193.063 188.878 192.743 189.269C192.641 189.393 192.537 189.513 192.434 189.636C192.211 189.902 191.987 190.166 191.758 190.426C191.634 190.569 191.507 190.709 191.381 190.85C191.169 191.086 190.956 191.32 190.74 191.551C190.608 191.692 190.477 191.832 190.344 191.971C190.124 192.201 189.901 192.428 189.677 192.652C189.55 192.778 189.423 192.907 189.296 193.032C189.035 193.287 188.772 193.536 188.507 193.783C188.414 193.869 188.323 193.958 188.23 194.043C187.871 194.37 187.509 194.691 187.144 195.002C187.059 195.075 186.973 195.143 186.887 195.215C186.655 195.41 186.421 195.601 186.186 195.79L189.196 175.823C189.33 175.837 189.466 175.847 189.599 175.861C189.778 175.882 189.958 175.903 190.137 175.925C190.519 175.973 190.898 176.027 191.276 176.086C191.427 176.109 191.579 176.13 191.731 176.156C192.251 176.243 192.768 176.338 193.281 176.446C193.345 176.46 193.408 176.476 193.472 176.49C193.922 176.587 194.369 176.692 194.813 176.805C194.974 176.846 195.135 176.89 195.295 176.933C195.651 177.028 196.004 177.129 196.356 177.235C196.52 177.284 196.684 177.333 196.847 177.384C197.244 177.51 197.637 177.642 198.028 177.781C198.128 177.816 198.229 177.849 198.328 177.885C198.77 178.046 199.207 178.218 199.642 178.396C199.512 178.666 199.381 178.935 199.247 179.202C199.181 179.333 199.117 179.468 199.05 179.6ZM180.556 193.295C180.367 193.015 180.18 192.731 179.998 192.442C179.913 192.308 179.831 192.171 179.747 192.035C179.597 191.789 179.448 191.542 179.302 191.291C179.216 191.141 179.129 190.991 179.045 190.839C178.906 190.591 178.77 190.342 178.636 190.09C178.555 189.938 178.474 189.786 178.395 189.633C178.256 189.361 178.12 189.086 177.986 188.809C177.92 188.673 177.853 188.54 177.789 188.402C177.596 187.993 177.41 187.58 177.23 187.161C177.222 187.143 177.215 187.125 177.207 187.106C177.031 186.695 176.863 186.278 176.699 185.857C176.643 185.712 176.59 185.565 176.535 185.418C176.424 185.124 176.315 184.828 176.21 184.528C176.15 184.358 176.092 184.186 176.035 184.014C175.939 183.73 175.846 183.444 175.756 183.156C175.701 182.98 175.646 182.803 175.593 182.625C175.503 182.327 175.417 182.026 175.333 181.723C175.287 181.557 175.24 181.392 175.195 181.226C175.098 180.86 175.007 180.49 174.917 180.119C174.892 180.014 174.863 179.909 174.839 179.804C174.728 179.325 174.624 178.843 174.526 178.355C174.5 178.23 174.478 178.103 174.454 177.976C174.398 177.686 174.346 177.394 174.295 177.101C174.822 176.954 175.351 176.82 175.882 176.695C176.034 176.659 176.186 176.627 176.337 176.593C176.757 176.5 177.177 176.412 177.599 176.332C177.753 176.303 177.909 176.272 178.063 176.244C178.615 176.145 179.168 176.055 179.723 175.979C179.765 175.974 179.807 175.97 179.85 175.964C180.365 175.895 180.882 175.84 181.399 175.791C181.561 175.776 181.723 175.762 181.885 175.749C182.319 175.714 182.754 175.686 183.189 175.664C183.327 175.657 183.465 175.649 183.604 175.644C184.125 175.623 184.648 175.614 185.171 175.615L182.173 195.497C182.013 195.296 181.855 195.094 181.7 194.889C181.631 194.799 181.559 194.709 181.49 194.618C181.23 194.268 180.976 193.913 180.727 193.551C180.668 193.468 180.613 193.38 180.556 193.295ZM180.422 140.164C180.585 139.857 180.752 139.554 180.92 139.252C180.991 139.122 181.061 138.992 181.134 138.864C181.377 138.435 181.623 138.011 181.875 137.593C181.906 137.541 181.939 137.49 181.97 137.438C182.192 137.073 182.416 136.711 182.645 136.353C182.733 136.215 182.822 136.081 182.912 135.945C183.087 135.676 183.264 135.407 183.444 135.142C183.548 134.989 183.654 134.837 183.759 134.685C183.929 134.44 184.1 134.198 184.273 133.957C184.384 133.803 184.497 133.649 184.61 133.496C184.784 133.261 184.959 133.028 185.136 132.797C185.25 132.648 185.363 132.499 185.478 132.353C185.663 132.117 185.85 131.884 186.038 131.652C186.148 131.517 186.256 131.381 186.367 131.248C186.583 130.989 186.8 130.734 187.02 130.481C187.106 130.382 187.191 130.28 187.278 130.181C187.586 129.83 187.898 129.486 188.215 129.148C188.262 129.096 188.311 129.047 188.359 128.996C188.628 128.712 188.898 128.43 189.172 128.154C189.283 128.042 189.396 127.934 189.508 127.823C189.722 127.613 189.937 127.403 190.154 127.197C190.283 127.074 190.414 126.954 190.545 126.834C190.749 126.645 190.955 126.457 191.162 126.273C191.299 126.151 191.437 126.03 191.575 125.91C191.781 125.732 191.989 125.556 192.198 125.382C192.337 125.267 192.476 125.151 192.615 125.038C192.683 124.983 192.751 124.931 192.818 124.877L189.91 144.167C189.411 144.094 188.914 144.011 188.422 143.919C188.29 143.894 188.16 143.866 188.03 143.839C187.615 143.756 187.203 143.668 186.794 143.572C186.64 143.537 186.487 143.501 186.333 143.462C185.841 143.341 185.351 143.212 184.866 143.071C184.834 143.061 184.803 143.053 184.771 143.044C184.257 142.893 183.749 142.728 183.244 142.555C183.102 142.505 182.96 142.455 182.818 142.404C182.43 142.266 182.045 142.121 181.663 141.97C181.532 141.918 181.401 141.868 181.271 141.815C180.804 141.624 180.341 141.423 179.883 141.214C179.976 141.028 180.07 140.843 180.166 140.659C180.25 140.495 180.336 140.329 180.422 140.164ZM199.263 128.647C199.34 128.774 199.42 128.898 199.495 129.026C199.692 129.356 199.883 129.692 200.071 130.031C200.096 130.077 200.124 130.123 200.15 130.17C200.362 130.557 200.567 130.95 200.767 131.347C200.828 131.468 200.886 131.593 200.945 131.716C201.082 131.994 201.218 132.274 201.348 132.558C201.42 132.713 201.488 132.871 201.558 133.027C201.672 133.284 201.785 133.543 201.894 133.804C201.965 133.972 202.034 134.142 202.103 134.312C202.207 134.569 202.308 134.827 202.407 135.087C202.473 135.261 202.538 135.434 202.603 135.609C202.7 135.875 202.794 136.144 202.887 136.414C202.945 136.585 203.005 136.756 203.063 136.928C203.159 137.22 203.25 137.515 203.341 137.811C203.388 137.964 203.437 138.115 203.482 138.269C203.599 138.666 203.711 139.066 203.818 139.47C203.833 139.525 203.849 139.579 203.863 139.634C203.983 140.095 204.096 140.559 204.204 141.028C204.237 141.17 204.266 141.314 204.297 141.457C204.37 141.785 204.44 142.114 204.506 142.447C204.542 142.627 204.575 142.809 204.608 142.99C204.645 143.188 204.68 143.387 204.715 143.587C204.252 143.692 203.79 143.793 203.325 143.881C203.237 143.898 203.149 143.911 203.061 143.927C202.625 144.008 202.187 144.08 201.748 144.147C201.578 144.172 201.406 144.195 201.235 144.219C200.865 144.269 200.494 144.315 200.124 144.355C199.952 144.374 199.782 144.393 199.611 144.41C199.162 144.453 198.712 144.489 198.263 144.517C198.183 144.522 198.104 144.53 198.025 144.534C197.5 144.563 196.975 144.581 196.449 144.59C196.295 144.593 196.141 144.592 195.987 144.592C195.604 144.594 195.223 144.592 194.84 144.583C194.662 144.579 194.484 144.573 194.306 144.568C194.174 144.563 194.043 144.553 193.911 144.547L196.833 125.17C196.887 125.239 196.943 125.305 196.998 125.374C197.103 125.508 197.206 125.644 197.31 125.78C197.467 125.987 197.622 126.196 197.775 126.408C197.876 126.548 197.977 126.689 198.077 126.831C198.229 127.048 198.378 127.269 198.526 127.49C198.619 127.63 198.714 127.769 198.805 127.911C198.961 128.156 199.112 128.401 199.263 128.647ZM199.613 173.619C199.189 173.469 198.762 173.325 198.331 173.189C198.15 173.132 197.968 173.078 197.786 173.023C197.404 172.909 197.02 172.799 196.635 172.695C196.453 172.646 196.272 172.596 196.089 172.55C195.634 172.435 195.177 172.328 194.717 172.227C194.612 172.205 194.509 172.179 194.404 172.157C193.84 172.038 193.272 171.933 192.701 171.837C192.547 171.812 192.392 171.791 192.239 171.767C191.813 171.701 191.386 171.64 190.958 171.587C190.762 171.562 190.566 171.54 190.368 171.518C190.197 171.499 190.027 171.475 189.855 171.458L191.226 162.362L204.515 163.336C204.513 163.348 204.512 163.36 204.509 163.371C204.501 163.416 204.491 163.46 204.483 163.504C204.385 164.036 204.277 164.567 204.164 165.096C204.129 165.263 204.092 165.43 204.054 165.597C203.956 166.039 203.853 166.48 203.745 166.919C203.71 167.06 203.678 167.2 203.642 167.341C203.5 167.904 203.35 168.463 203.191 169.02C203.16 169.129 203.126 169.239 203.094 169.348C202.962 169.804 202.825 170.258 202.681 170.708C202.629 170.874 202.576 171.039 202.522 171.204C202.374 171.656 202.222 172.106 202.065 172.555C202.027 172.66 201.993 172.765 201.955 172.87C201.782 173.349 201.601 173.826 201.417 174.3C200.936 174.104 200.449 173.917 199.96 173.738C199.844 173.697 199.728 173.66 199.613 173.619ZM184.446 171.264C184.335 171.267 184.226 171.271 184.116 171.274C183.713 171.287 183.31 171.305 182.907 171.329C182.85 171.332 182.793 171.335 182.737 171.338C182.289 171.367 181.841 171.403 181.394 171.445C181.285 171.455 181.176 171.467 181.067 171.478C180.675 171.518 180.284 171.563 179.892 171.613C179.824 171.622 179.756 171.63 179.688 171.639C179.243 171.699 178.799 171.766 178.357 171.838C178.249 171.857 178.142 171.875 178.035 171.893C177.653 171.96 177.27 172.03 176.889 172.106C176.812 172.121 176.735 172.135 176.658 172.151C176.218 172.241 175.779 172.339 175.34 172.442C175.236 172.467 175.132 172.493 175.028 172.518C174.654 172.609 174.281 172.705 173.908 172.806C173.85 172.821 173.791 172.835 173.733 172.851C173.686 172.332 173.643 171.811 173.611 171.288C173.604 171.169 173.6 171.051 173.594 170.932C173.568 170.458 173.549 169.981 173.535 169.503C173.53 169.324 173.526 169.145 173.522 168.966C173.514 168.492 173.511 168.017 173.515 167.541C173.516 167.415 173.514 167.29 173.517 167.163C173.525 166.569 173.543 165.975 173.57 165.379C173.577 165.235 173.586 165.091 173.594 164.947C173.619 164.48 173.648 164.013 173.684 163.544C173.698 163.363 173.712 163.183 173.728 163.002C173.772 162.491 173.823 161.979 173.88 161.467C173.891 161.37 173.9 161.274 173.911 161.177C173.914 161.149 173.919 161.121 173.922 161.093L187.209 162.067L185.825 171.248C185.816 171.248 185.807 171.249 185.798 171.248C185.349 171.247 184.898 171.254 184.446 171.264ZM179.184 145.776C179.277 145.815 179.37 145.854 179.463 145.893C179.858 146.055 180.255 146.211 180.655 146.361C180.722 146.386 180.789 146.41 180.857 146.434C181.205 146.562 181.555 146.685 181.907 146.803C182.006 146.836 182.107 146.87 182.207 146.903C182.613 147.036 183.023 147.165 183.435 147.285C183.495 147.302 183.555 147.318 183.615 147.335C183.98 147.44 184.347 147.54 184.717 147.633C184.821 147.661 184.926 147.688 185.03 147.713C185.45 147.817 185.871 147.917 186.296 148.009C186.346 148.02 186.396 148.029 186.444 148.039C186.829 148.121 187.215 148.196 187.604 148.267C187.713 148.286 187.821 148.306 187.93 148.325C188.361 148.401 188.794 148.47 189.23 148.533C189.237 148.534 189.245 148.535 189.252 148.536L187.868 157.717L174.604 156.745C174.716 156.162 174.837 155.583 174.966 155.006C175.001 154.846 175.039 154.687 175.076 154.528C175.184 154.062 175.298 153.597 175.417 153.134C175.459 152.969 175.5 152.804 175.544 152.64C175.702 152.045 175.867 151.451 176.043 150.863C176.057 150.814 176.074 150.765 176.088 150.716C176.252 150.175 176.424 149.636 176.602 149.101C176.658 148.931 176.717 148.761 176.775 148.593C176.93 148.138 177.092 147.685 177.258 147.235C177.309 147.098 177.358 146.961 177.409 146.824C177.607 146.302 177.813 145.786 178.025 145.271C178.074 145.294 178.124 145.314 178.173 145.336C178.509 145.487 178.845 145.633 179.184 145.776ZM194.351 148.948C194.777 148.958 195.204 148.961 195.63 148.958C195.791 148.957 195.951 148.959 196.112 148.957C196.692 148.947 197.27 148.927 197.849 148.894C197.957 148.888 198.064 148.878 198.17 148.871C198.645 148.841 199.119 148.804 199.594 148.758C199.786 148.739 199.979 148.718 200.171 148.697C200.573 148.652 200.973 148.603 201.374 148.548C201.568 148.521 201.762 148.495 201.956 148.466C202.41 148.398 202.864 148.321 203.316 148.239C203.441 148.215 203.567 148.197 203.692 148.173C204.22 148.072 204.748 147.963 205.274 147.841C205.319 148.35 205.36 148.859 205.391 149.371C205.4 149.5 205.404 149.629 205.411 149.759C205.435 150.212 205.454 150.666 205.467 151.121C205.472 151.285 205.477 151.449 205.479 151.613C205.49 152.162 205.495 152.711 205.49 153.263C205.49 153.289 205.49 153.315 205.49 153.342C205.483 153.918 205.465 154.497 205.441 155.076C205.434 155.239 205.425 155.404 205.417 155.567C205.394 156.023 205.366 156.479 205.332 156.937C205.321 157.08 205.312 157.224 205.3 157.368C205.256 157.905 205.204 158.444 205.145 158.983L191.882 158.011L193.254 148.916C193.422 148.923 193.59 148.925 193.758 148.931C193.955 148.937 194.153 148.943 194.351 148.948ZM209.166 159.276C209.237 158.645 209.296 158.015 209.347 157.385C209.362 157.198 209.374 157.011 209.388 156.824C209.422 156.352 209.452 155.882 209.475 155.412C209.485 155.223 209.495 155.033 209.504 154.845C209.529 154.232 209.548 153.619 209.556 153.01C209.556 152.989 209.557 152.969 209.557 152.95C209.564 152.32 209.558 151.693 209.545 151.067C209.542 150.885 209.535 150.703 209.53 150.522C209.516 150.056 209.498 149.593 209.473 149.13C209.463 148.946 209.455 148.765 209.443 148.582C209.404 147.96 209.358 147.34 209.3 146.722C209.839 146.546 210.374 146.356 210.906 146.16C211.059 146.104 211.211 146.045 211.363 145.987C211.776 145.829 212.187 145.667 212.596 145.497C212.742 145.437 212.889 145.378 213.034 145.316C213.564 145.09 214.09 144.856 214.611 144.61C214.68 144.578 214.746 144.543 214.814 144.511C215.271 144.293 215.725 144.066 216.175 143.832C216.327 143.753 216.479 143.673 216.631 143.592C217.033 143.378 217.432 143.157 217.829 142.931C217.946 142.863 218.065 142.799 218.181 142.73C218.636 142.465 219.088 142.193 219.535 141.913C222.213 147.472 223.329 153.745 222.802 160.274L209.166 159.275L209.166 159.276ZM217.521 138.327C217.164 138.549 216.806 138.772 216.442 138.983C216.399 139.008 216.353 139.032 216.31 139.058C215.897 139.295 215.481 139.524 215.061 139.747C214.938 139.812 214.814 139.877 214.69 139.942C214.262 140.163 213.832 140.379 213.398 140.585C213.359 140.604 213.32 140.624 213.281 140.643C212.812 140.865 212.337 141.075 211.859 141.279C211.734 141.332 211.608 141.383 211.483 141.436C211.08 141.603 210.674 141.764 210.266 141.919C210.176 141.953 210.086 141.99 209.994 142.023C209.577 142.178 209.155 142.322 208.732 142.464C208.709 142.336 208.68 142.21 208.657 142.082C208.571 141.604 208.479 141.13 208.381 140.66C208.338 140.453 208.296 140.246 208.25 140.04C208.129 139.495 208.001 138.955 207.864 138.42C207.838 138.317 207.816 138.213 207.789 138.11C207.624 137.48 207.447 136.859 207.26 136.244C207.207 136.07 207.151 135.899 207.097 135.727C206.954 135.276 206.807 134.829 206.653 134.387C206.585 134.19 206.515 133.993 206.444 133.798C206.277 133.339 206.104 132.886 205.924 132.436C205.868 132.296 205.815 132.154 205.759 132.015C205.522 131.438 205.274 130.87 205.016 130.311C204.953 130.176 204.887 130.044 204.824 129.91C204.62 129.48 204.411 129.054 204.195 128.634C204.103 128.458 204.011 128.283 203.918 128.108C203.705 127.708 203.486 127.314 203.261 126.925C203.202 126.823 203.148 126.716 203.089 126.614C208.947 128.818 213.987 132.885 217.521 138.327ZM186.033 125.634C185.721 125.959 185.412 126.287 185.107 126.621C184.969 126.771 184.832 126.922 184.696 127.074C184.354 127.457 184.017 127.847 183.684 128.241C183.603 128.337 183.521 128.43 183.441 128.526C183.034 129.017 182.634 129.518 182.241 130.028C182.138 130.162 182.037 130.299 181.935 130.434C181.643 130.819 181.355 131.208 181.072 131.603C180.946 131.78 180.821 131.956 180.696 132.136C180.427 132.522 180.161 132.912 179.899 133.306C179.793 133.467 179.684 133.626 179.579 133.789C179.222 134.339 178.871 134.896 178.529 135.462C178.491 135.526 178.454 135.592 178.416 135.656C178.113 136.163 177.817 136.677 177.528 137.196C177.424 137.382 177.323 137.569 177.222 137.755C176.995 138.174 176.771 138.596 176.552 139.022C176.494 139.135 176.432 139.245 176.374 139.358C176.042 139.158 175.71 138.958 175.386 138.748C175.339 138.718 175.293 138.685 175.245 138.654C174.887 138.419 174.534 138.177 174.187 137.93C174.087 137.858 173.987 137.788 173.888 137.716C173.502 137.436 173.121 137.151 172.749 136.856C172.734 136.844 172.719 136.831 172.704 136.819C172.347 136.534 171.997 136.241 171.652 135.942C171.558 135.862 171.464 135.779 171.372 135.697C171.038 135.403 170.709 135.103 170.388 134.795C170.365 134.774 170.341 134.752 170.318 134.731C170.051 134.473 169.794 134.207 169.535 133.94C174.484 129.513 180.246 126.575 186.289 125.363C186.202 125.452 186.119 125.546 186.033 125.634ZM166.411 137.061C166.735 137.398 167.066 137.728 167.402 138.053C167.477 138.125 167.554 138.195 167.629 138.265C167.942 138.563 168.261 138.855 168.584 139.141C168.699 139.243 168.814 139.344 168.93 139.444C169.272 139.74 169.62 140.03 169.974 140.314C170.037 140.363 170.097 140.416 170.161 140.465C170.574 140.793 170.996 141.109 171.424 141.42C171.536 141.502 171.651 141.581 171.766 141.661C172.1 141.899 172.438 142.13 172.781 142.356C172.905 142.438 173.029 142.521 173.154 142.601C173.594 142.885 174.038 143.163 174.492 143.429C174.481 143.456 174.471 143.483 174.46 143.51C174.414 143.618 174.372 143.728 174.328 143.837C174.116 144.35 173.912 144.865 173.714 145.384C173.638 145.582 173.565 145.781 173.491 145.98C173.322 146.439 173.157 146.901 172.997 147.365C172.933 147.55 172.868 147.735 172.806 147.921C172.593 148.557 172.388 149.196 172.195 149.839C172.182 149.883 172.171 149.927 172.158 149.97C171.978 150.572 171.809 151.178 171.648 151.786C171.595 151.985 171.545 152.184 171.494 152.383C171.372 152.858 171.256 153.336 171.144 153.815C171.098 154.017 171.05 154.219 171.005 154.422C170.871 155.024 170.744 155.63 170.626 156.237C170.615 156.297 170.602 156.355 170.59 156.414C170.588 156.426 170.585 156.437 170.583 156.448L156.953 155.45C158.474 148.646 161.766 142.244 166.411 137.061ZM156.228 159.799L169.905 160.801C169.898 160.86 169.894 160.918 169.886 160.977C169.865 161.15 169.85 161.322 169.83 161.494C169.775 161.989 169.726 162.484 169.683 162.978C169.664 163.196 169.646 163.414 169.629 163.632C169.593 164.11 169.563 164.585 169.537 165.061C169.527 165.251 169.515 165.442 169.506 165.632C169.477 166.286 169.456 166.939 169.447 167.589C169.446 167.661 169.448 167.732 169.447 167.803C169.442 168.385 169.446 168.964 169.457 169.542C169.461 169.744 169.468 169.945 169.474 170.147C169.488 170.61 169.506 171.072 169.531 171.532C169.542 171.736 169.553 171.94 169.566 172.145C169.599 172.679 169.641 173.213 169.69 173.743C169.7 173.852 169.707 173.961 169.718 174.07C169.721 174.099 169.722 174.129 169.725 174.157C169.713 174.162 169.703 174.167 169.69 174.171C169.644 174.188 169.599 174.208 169.553 174.225C169.044 174.419 168.538 174.624 168.036 174.835C167.877 174.902 167.719 174.971 167.562 175.04C167.139 175.224 166.72 175.414 166.304 175.61C166.173 175.672 166.041 175.731 165.91 175.794C165.38 176.05 164.854 176.315 164.334 176.591C164.233 176.645 164.133 176.702 164.033 176.756C163.608 176.986 163.186 177.223 162.768 177.465C162.615 177.554 162.463 177.644 162.312 177.734C161.897 177.982 161.486 178.236 161.078 178.497C160.981 178.56 160.882 178.62 160.785 178.683C160.348 178.968 159.913 179.259 159.485 179.559C156.606 173.653 155.467 166.761 156.228 159.799ZM161.518 183.122C161.894 182.861 162.27 182.601 162.654 182.351C162.734 182.299 162.816 182.249 162.897 182.197C163.274 181.955 163.654 181.72 164.038 181.492C164.158 181.42 164.279 181.348 164.4 181.277C164.859 181.01 165.321 180.748 165.79 180.498C165.811 180.487 165.834 180.476 165.855 180.464C166.304 180.226 166.758 179.999 167.214 179.777C167.345 179.713 167.477 179.651 167.607 179.589C168.02 179.394 168.437 179.205 168.857 179.024C168.932 178.991 169.006 178.957 169.081 178.924C169.488 178.751 169.901 178.589 170.314 178.429C170.337 178.557 170.367 178.682 170.39 178.81C170.483 179.318 170.583 179.821 170.69 180.321C170.734 180.528 170.778 180.735 170.824 180.94C170.963 181.548 171.109 182.151 171.266 182.745C171.284 182.811 171.299 182.879 171.317 182.945C171.494 183.602 171.686 184.249 171.887 184.891C171.944 185.073 172.006 185.252 172.064 185.432C172.218 185.903 172.378 186.369 172.545 186.831C172.616 187.025 172.685 187.218 172.758 187.41C172.954 187.93 173.159 188.445 173.372 188.953C173.413 189.05 173.45 189.151 173.492 189.248C173.748 189.846 174.017 190.432 174.295 191.012C174.371 191.167 174.449 191.321 174.526 191.475C174.74 191.906 174.96 192.331 175.186 192.75C175.282 192.926 175.377 193.102 175.475 193.277C175.722 193.72 175.978 194.156 176.24 194.585C176.293 194.673 176.342 194.764 176.395 194.852C170.365 192.727 165.164 188.651 161.518 183.122ZM191.997 196.011C192.358 195.655 192.713 195.291 193.066 194.922C193.158 194.826 193.249 194.729 193.34 194.632C193.672 194.279 194.001 193.922 194.325 193.558C194.353 193.526 194.383 193.494 194.411 193.462C194.76 193.07 195.101 192.667 195.44 192.262C195.526 192.159 195.61 192.057 195.694 191.953C196.004 191.576 196.311 191.194 196.613 190.807C196.644 190.767 196.676 190.729 196.707 190.689C197.033 190.267 197.353 189.837 197.669 189.403C197.748 189.295 197.827 189.185 197.906 189.076C198.191 188.678 198.474 188.277 198.751 187.869C198.784 187.821 198.818 187.773 198.851 187.725C199.154 187.276 199.45 186.821 199.742 186.362C199.815 186.249 199.886 186.133 199.959 186.019C200.219 185.603 200.475 185.185 200.727 184.761C200.761 184.703 200.798 184.645 200.831 184.587C201.109 184.116 201.378 183.64 201.643 183.159C201.711 183.038 201.776 182.917 201.842 182.795C202.075 182.367 202.303 181.936 202.526 181.5C202.561 181.431 202.598 181.363 202.633 181.294C202.835 180.897 203.034 180.497 203.228 180.094C203.624 180.31 204.016 180.528 204.402 180.758C204.491 180.812 204.579 180.867 204.668 180.921C205.024 181.138 205.376 181.361 205.723 181.589C205.84 181.665 205.956 181.742 206.071 181.821C206.913 182.39 207.728 182.994 208.511 183.634C208.618 183.721 208.725 183.81 208.83 183.898C209.148 184.164 209.461 184.435 209.769 184.712C209.845 184.78 209.922 184.847 209.997 184.916C210.324 185.215 210.642 185.525 210.957 185.837C205.56 191.214 198.928 194.75 191.997 196.011ZM213.917 182.548C213.557 182.189 213.188 181.841 212.814 181.498C212.721 181.412 212.624 181.33 212.53 181.245C212.201 180.949 211.867 180.659 211.528 180.375C211.397 180.266 211.266 180.157 211.133 180.05C210.773 179.757 210.407 179.47 210.035 179.19C209.954 179.129 209.876 179.065 209.794 179.005C209.346 178.673 208.889 178.352 208.425 178.04C208.301 177.956 208.175 177.876 208.05 177.795C207.691 177.559 207.328 177.328 206.959 177.104C206.817 177.017 206.673 176.929 206.529 176.845C206.075 176.576 205.617 176.316 205.151 176.065C205.114 176.045 205.08 176.024 205.043 176.004C205.035 176.001 205.027 175.995 205.02 175.992L205.02 175.99C205.023 175.984 205.025 175.978 205.027 175.972C205.257 175.39 205.476 174.803 205.688 174.214C205.754 174.034 205.816 173.854 205.879 173.673C206.032 173.239 206.179 172.804 206.322 172.368C206.384 172.179 206.446 171.989 206.506 171.799C206.672 171.279 206.831 170.755 206.983 170.23C207.008 170.144 207.035 170.059 207.06 169.973C207.234 169.364 207.397 168.751 207.553 168.137C207.596 167.965 207.637 167.791 207.68 167.618C207.792 167.162 207.899 166.705 208.001 166.245C208.045 166.046 208.089 165.847 208.132 165.647C208.237 165.154 208.336 164.659 208.429 164.164C208.455 164.027 208.484 163.891 208.508 163.755C208.516 163.713 208.525 163.673 208.532 163.631L222.214 164.634C220.959 171.209 218.119 177.338 213.917 182.548Z" fill="#E8F0FE"/>
<path d="M235.205 99.074L157.558 92.5288L156.468 100.842L234.116 107.387L235.205 99.074Z" fill="#E8F0FE"/>
<path d="M117.2 258.18L126.229 258.97L125.096 271.926C124.646 277.068 128.151 281.283 133.25 281.729C133.924 281.788 134.618 281.78 135.314 281.704L247.89 269.568C248.642 269.566 249.379 269.486 250.09 269.331L250.106 269.33L250.106 269.327C254.469 268.371 257.903 264.693 258.31 260.04L274.09 79.6734C274.592 73.9361 270.303 68.8572 264.53 68.3521L134.8 57.0022C129.027 56.4972 123.922 60.7542 123.42 66.4915L107.64 246.858C107.138 252.596 111.426 257.675 117.2 258.18ZM134.729 276.406C134.381 276.444 134.04 276.448 133.714 276.42C131.56 276.231 130.243 274.613 130.437 272.393L131.571 259.437L220.201 267.192L134.729 276.406ZM128.762 66.9589C129.008 64.1487 131.508 62.0638 134.336 62.3112L264.066 73.6611C266.894 73.9085 268.994 76.3959 268.748 79.206L252.968 259.573C252.722 262.383 250.222 264.468 247.395 264.22L117.664 252.87C114.837 252.623 112.737 250.136 112.982 247.326L128.762 66.9589Z" fill="#E8F0FE"/>
</svg>
