<svg width="72" height="72" viewBox="0 0 72 72" fill="none" xmlns="http://www.w3.org/2000/svg">
<g filter="url(#filter0_d_32_105)">
<circle cx="36" cy="29" r="26" fill="#7B61FF"/>
</g>
<path d="M34.6176 33.5652C34.7578 33.7583 34.9594 33.9186 35.202 34.03C35.4446 34.1414 35.7198 34.2001 35.9999 34.2001C36.28 34.2001 36.5552 34.1414 36.7978 34.03C37.0405 33.9186 37.242 33.7583 37.3823 33.5652L40.986 28.5949C41.1261 28.4016 41.1999 28.1823 41.1999 27.9591C41.1999 27.7358 41.1261 27.5165 40.9859 27.3232C40.8457 27.1299 40.6441 26.9694 40.4013 26.8578C40.1586 26.7462 39.8831 26.6875 39.6028 26.6875H37.7807V19.3042C37.7807 19.1175 37.6875 18.9384 37.5217 18.8063C37.3559 18.6743 37.1309 18.6001 36.8964 18.6001H35.1035C34.8689 18.6001 34.644 18.6743 34.4781 18.8063C34.3123 18.9384 34.2191 19.1175 34.2191 19.3042V26.6888H32.397C32.1167 26.6888 31.8413 26.7475 31.5985 26.8591C31.3557 26.9707 31.1541 27.1312 31.0139 27.3245C30.8737 27.5178 30.7999 27.7371 30.7999 27.9603C30.7999 28.1836 30.8737 28.4029 31.0139 28.5962L34.6176 33.5652Z" fill="white"/>
<path d="M49.4515 23.8066H47.7291C47.6178 23.8062 47.5074 23.8246 47.4044 23.8607C47.3014 23.8968 47.2078 23.9498 47.1288 24.0168C47.0498 24.0838 46.9871 24.1635 46.9443 24.2512C46.9014 24.3389 46.8793 24.4329 46.8791 24.5279V34.9808C46.8787 35.1477 46.8397 35.3128 46.7645 35.4668C46.6893 35.6208 46.5793 35.7607 46.4408 35.8784C46.3022 35.9961 46.1379 36.0894 45.9571 36.1529C45.7763 36.2165 45.5826 36.249 45.3871 36.2486H26.6128C26.4173 36.249 26.2236 36.2165 26.0428 36.1529C25.862 36.0894 25.6977 35.9961 25.5591 35.8784C25.4206 35.7607 25.3106 35.6208 25.2354 35.4668C25.1602 35.3128 25.1212 35.1477 25.1208 34.9808V24.5212C25.1206 24.4263 25.0985 24.3323 25.0558 24.2447C25.013 24.1571 24.9504 24.0775 24.8717 24.0105C24.7929 23.9435 24.6994 23.8905 24.5966 23.8543C24.4937 23.8181 24.3836 23.7996 24.2724 23.7998H22.5484C22.4372 23.7996 22.327 23.8181 22.2242 23.8543C22.1214 23.8905 22.0279 23.9435 21.9491 24.0105C21.8703 24.0775 21.8078 24.1571 21.765 24.2447C21.7223 24.3323 21.7002 24.4263 21.7 24.5212V35.3523C21.7014 35.8852 21.8259 36.4126 22.0662 36.9045C22.3066 37.3963 22.6581 37.8429 23.1008 38.2187C23.5434 38.5946 24.0685 38.8924 24.646 39.095C25.2235 39.2976 25.8422 39.4012 26.4666 39.3998H45.5333C46.1577 39.4012 46.7764 39.2976 47.3539 39.095C47.9314 38.8924 48.4565 38.5946 48.8991 38.2187C49.3418 37.8429 49.6933 37.3963 49.9337 36.9045C50.174 36.4126 50.2985 35.8852 50.3 35.3523V24.5212C50.2974 24.3307 50.2069 24.1487 50.048 24.0149C49.8891 23.8811 49.6747 23.8062 49.4515 23.8066Z" fill="white"/>
<defs>
<filter id="filter0_d_32_105" x="0" y="0" width="72" height="72" filterUnits="userSpaceOnUse" color-interpolation-filters="sRGB">
<feFlood flood-opacity="0" result="BackgroundImageFix"/>
<feColorMatrix in="SourceAlpha" type="matrix" values="0 0 0 0 0 0 0 0 0 0 0 0 0 0 0 0 0 0 127 0" result="hardAlpha"/>
<feOffset dy="7"/>
<feGaussianBlur stdDeviation="5"/>
<feComposite in2="hardAlpha" operator="out"/>
<feColorMatrix type="matrix" values="0 0 0 0 0.482353 0 0 0 0 0.380392 0 0 0 0 1 0 0 0 0.35 0"/>
<feBlend mode="normal" in2="BackgroundImageFix" result="effect1_dropShadow_32_105"/>
<feBlend mode="normal" in="SourceGraphic" in2="effect1_dropShadow_32_105" result="shape"/>
</filter>
</defs>
</svg>
