<svg width="72" height="72" viewBox="0 0 72 72" fill="none" xmlns="http://www.w3.org/2000/svg">
<g filter="url(#filter0_d_32_110)">
<circle cx="36" cy="29" r="26" fill="#7B61FF"/>
</g>
<path d="M35.9797 21.6338H39.8037C40.81 21.6338 41.6333 22.6305 41.6333 23.8486V39.3523C41.6333 40.5705 40.81 41.5671 39.8037 41.5671H26.9963C25.99 41.5671 25.1666 40.5705 25.1666 39.3523V23.8486C25.1666 22.6305 25.99 21.6338 26.9963 21.6338H30.8202H35.9797Z" stroke="white" stroke-width="2.08333"/>
<path d="M26.9 19.8035C26.9 18.4265 27.8534 17.2998 29.0185 17.2998H33.4462H39.4205H43.8482C45.0134 17.2998 45.9667 18.4265 45.9667 19.8035V37.3294C45.9667 38.7065 45.0134 39.8331 43.8482 39.8331" stroke="white" stroke-width="2.08333"/>
<path d="M28.2002 37.2334H38.6002" stroke="white" stroke-width="1.66667" stroke-linecap="round"/>
<path d="M28.2002 32.8999H38.6002" stroke="white" stroke-width="1.66667" stroke-linecap="round"/>
<defs>
<filter id="filter0_d_32_110" x="0" y="0" width="72" height="72" filterUnits="userSpaceOnUse" color-interpolation-filters="sRGB">
<feFlood flood-opacity="0" result="BackgroundImageFix"/>
<feColorMatrix in="SourceAlpha" type="matrix" values="0 0 0 0 0 0 0 0 0 0 0 0 0 0 0 0 0 0 127 0" result="hardAlpha"/>
<feOffset dy="7"/>
<feGaussianBlur stdDeviation="5"/>
<feComposite in2="hardAlpha" operator="out"/>
<feColorMatrix type="matrix" values="0 0 0 0 0.482353 0 0 0 0 0.380392 0 0 0 0 1 0 0 0 0.35 0"/>
<feBlend mode="normal" in2="BackgroundImageFix" result="effect1_dropShadow_32_110"/>
<feBlend mode="normal" in="SourceGraphic" in2="effect1_dropShadow_32_110" result="shape"/>
</filter>
</defs>
</svg>
