<svg width="72" height="72" viewBox="0 0 72 72" fill="none" xmlns="http://www.w3.org/2000/svg">
<g filter="url(#filter0_d_32_99)">
<circle cx="36" cy="29" r="26" fill="#7B61FF"/>
</g>
<path d="M39.4205 17.2998H43.8482C45.0134 17.2998 45.9667 18.5131 45.9667 19.9961V38.8702C45.9667 40.3531 45.0134 41.5665 43.8482 41.5665H29.0185C27.8534 41.5665 26.9 40.3531 26.9 38.8702V19.9961C26.9 18.5131 27.8534 17.2998 29.0185 17.2998H33.4462H39.4205Z" stroke="white" stroke-width="2.08333"/>
<path d="M33.3933 31.4129C33.66 31.4129 33.7933 31.5263 33.7933 31.7529C33.7933 31.9841 33.66 32.0996 33.3933 32.0996H30.5533C30.4378 32.0996 30.3445 32.0663 30.2733 31.9996C30.2067 31.9285 30.1733 31.8396 30.1733 31.7329C30.1733 31.6263 30.2089 31.5241 30.28 31.4263L32.6667 28.0863H30.58C30.3133 28.0863 30.18 27.9729 30.18 27.7463C30.18 27.5152 30.3133 27.3996 30.58 27.3996H33.3333C33.4489 27.3996 33.54 27.4352 33.6067 27.5063C33.6778 27.5729 33.7133 27.6574 33.7133 27.7596C33.7133 27.8618 33.6756 27.9641 33.6 28.0663L31.2133 31.4129H33.3933ZM34.8771 32.1396C34.7482 32.1396 34.6438 32.0996 34.5638 32.0196C34.4882 31.9396 34.4504 31.8352 34.4504 31.7063V27.7929C34.4504 27.6641 34.4882 27.5618 34.5638 27.4863C34.6438 27.4063 34.7482 27.3663 34.8771 27.3663C35.0104 27.3663 35.1149 27.4063 35.1904 27.4863C35.2704 27.5618 35.3104 27.6641 35.3104 27.7929V31.7063C35.3104 31.8352 35.2704 31.9396 35.1904 32.0196C35.1149 32.0996 35.0104 32.1396 34.8771 32.1396ZM36.7521 32.1396C36.6232 32.1396 36.5188 32.1018 36.4388 32.0263C36.3632 31.9463 36.3254 31.8396 36.3254 31.7063V27.8063C36.3254 27.6774 36.361 27.5774 36.4321 27.5063C36.5077 27.4352 36.6099 27.3996 36.7388 27.3996H38.3788C38.881 27.3996 39.2721 27.5263 39.5521 27.7796C39.8321 28.0285 39.9721 28.3796 39.9721 28.8329C39.9721 29.2863 39.8321 29.6396 39.5521 29.8929C39.2721 30.1463 38.881 30.2729 38.3788 30.2729H37.1854V31.7063C37.1854 31.8396 37.1454 31.9463 37.0654 32.0263C36.9899 32.1018 36.8854 32.1396 36.7521 32.1396ZM38.2721 29.6129C38.8632 29.6129 39.1588 29.3552 39.1588 28.8396C39.1588 28.3241 38.8632 28.0663 38.2721 28.0663H37.1854V29.6129H38.2721Z" fill="white"/>
<defs>
<filter id="filter0_d_32_99" x="0" y="0" width="72" height="72" filterUnits="userSpaceOnUse" color-interpolation-filters="sRGB">
<feFlood flood-opacity="0" result="BackgroundImageFix"/>
<feColorMatrix in="SourceAlpha" type="matrix" values="0 0 0 0 0 0 0 0 0 0 0 0 0 0 0 0 0 0 127 0" result="hardAlpha"/>
<feOffset dy="7"/>
<feGaussianBlur stdDeviation="5"/>
<feComposite in2="hardAlpha" operator="out"/>
<feColorMatrix type="matrix" values="0 0 0 0 0.482353 0 0 0 0 0.380392 0 0 0 0 1 0 0 0 0.35 0"/>
<feBlend mode="normal" in2="BackgroundImageFix" result="effect1_dropShadow_32_99"/>
<feBlend mode="normal" in="SourceGraphic" in2="effect1_dropShadow_32_99" result="shape"/>
</filter>
</defs>
</svg>
